
<svg width="64" height="64" viewBox="0 0 64 64" xmlns="http://www.w3.org/2000/svg">
  <defs>
    <linearGradient id="bgGrad" x1="0%" y1="0%" x2="100%" y2="100%">
      <stop offset="0%" stop-color="#334155" />
      <stop offset="100%" stop-color="#0f172a" />
    </linearGradient>
    <filter id="glow" x="-20%" y="-20%" width="140%" height="140%">
      <feGaussianBlur stdDeviation="3" result="blur" />
      <feComposite in="SourceGraphic" in2="blur" operator="over" />
    </filter>
  </defs>
  
  <rect x="8" y="4" width="48" height="56" rx="8" fill="url(#bgGrad)" stroke="#a855f7" stroke-width="2" />
  <rect x="14" y="10" width="36" height="44" rx="4" fill="#1e293b" />
  
  <circle cx="32" cy="32" r="16" fill="none" stroke="#a855f7" stroke-width="1.5" opacity="0.6" />
  <circle cx="32" cy="32" r="12" fill="#a855f7" opacity="0.2" filter="url(#glow)" />

  <g transform="translate(20, 20) scale(1)">
    <svg width="24" height="24" viewBox="0 0 24 24" fill="none" stroke="#a855f7" stroke-width="2" stroke-linecap="round" stroke-linejoin="round">
      <circle cx="12" cy="12" r="4"/><path d="M12 2v2M12 20v2M4.93 4.93l1.41 1.41M17.66 17.66l1.41 1.41M2 12h2M20 12h2M4.93 19.07l1.41-1.41M17.66 6.34l1.41-1.41" />
    </svg>
  </g>
</svg>